<mxfile host="app.diagrams.net" modified="2023-03-23T07:01:22.594Z" agent="5.0 (Windows NT 10.0; WOW64) AppleWebKit/537.36 (KHTML, like Gecko) Chrome/87.0.4280.66 Safari/537.36" etag="NKbFqbjevhWsbuHnyNJC" version="20.8.20" type="github" pages="3">
  <diagram name="Page-1" id="5d7acffa-a066-3a61-03fe-96351882024d">
    <mxGraphModel dx="1434" dy="764" grid="1" gridSize="10" guides="1" tooltips="1" connect="1" arrows="1" fold="1" page="1" pageScale="1" pageWidth="1100" pageHeight="850" background="#ffffff" math="0" shadow="0">
      <root>
        <mxCell id="0" />
        <mxCell id="1" parent="0" />
        <mxCell id="o_GeTZVkyUyBrLudTmDx-1" value="接送机预订流程" style="swimlane;whiteSpace=wrap;html=1;" vertex="1" parent="1">
          <mxGeometry x="90" y="80" width="1400" height="670" as="geometry" />
        </mxCell>
        <mxCell id="o_GeTZVkyUyBrLudTmDx-2" value="首页" style="swimlane;whiteSpace=wrap;html=1;" vertex="1" parent="o_GeTZVkyUyBrLudTmDx-1">
          <mxGeometry y="20" width="280" height="650" as="geometry" />
        </mxCell>
        <mxCell id="o_GeTZVkyUyBrLudTmDx-3" value="查询" style="swimlane;whiteSpace=wrap;html=1;" vertex="1" parent="o_GeTZVkyUyBrLudTmDx-1">
          <mxGeometry x="280" y="20" width="280" height="650" as="geometry" />
        </mxCell>
        <mxCell id="o_GeTZVkyUyBrLudTmDx-4" value="首页" style="swimlane;whiteSpace=wrap;html=1;" vertex="1" parent="o_GeTZVkyUyBrLudTmDx-1">
          <mxGeometry x="560" y="20" width="280" height="650" as="geometry" />
        </mxCell>
        <mxCell id="o_GeTZVkyUyBrLudTmDx-5" value="首页" style="swimlane;whiteSpace=wrap;html=1;" vertex="1" parent="o_GeTZVkyUyBrLudTmDx-1">
          <mxGeometry x="840" y="20" width="280" height="650" as="geometry" />
        </mxCell>
        <mxCell id="o_GeTZVkyUyBrLudTmDx-6" value="首页" style="swimlane;whiteSpace=wrap;html=1;" vertex="1" parent="o_GeTZVkyUyBrLudTmDx-1">
          <mxGeometry x="1120" y="20" width="280" height="650" as="geometry" />
        </mxCell>
      </root>
    </mxGraphModel>
  </diagram>
  <diagram id="IxJhZY6UstU6vyt77zPl" name="第 2 页">
    <mxGraphModel dx="1434" dy="764" grid="1" gridSize="10" guides="1" tooltips="1" connect="1" arrows="1" fold="1" page="1" pageScale="1" pageWidth="827" pageHeight="1169" math="0" shadow="0">
      <root>
        <mxCell id="0" />
        <mxCell id="1" parent="0" />
        <mxCell id="0Ik1B2YSkoWto7h3oj6E-1" value="航司" style="rounded=0;whiteSpace=wrap;html=1;" parent="1" vertex="1">
          <mxGeometry x="70" y="320" width="120" height="60" as="geometry" />
        </mxCell>
        <mxCell id="0Ik1B2YSkoWto7h3oj6E-2" value="非常准" style="rounded=0;whiteSpace=wrap;html=1;" parent="1" vertex="1">
          <mxGeometry x="390" y="320" width="120" height="60" as="geometry" />
        </mxCell>
        <mxCell id="0Ik1B2YSkoWto7h3oj6E-3" value="航旅纵横" style="rounded=0;whiteSpace=wrap;html=1;" parent="1" vertex="1">
          <mxGeometry x="230" y="320" width="120" height="60" as="geometry" />
        </mxCell>
        <mxCell id="0Ik1B2YSkoWto7h3oj6E-23" style="edgeStyle=orthogonalEdgeStyle;rounded=0;orthogonalLoop=1;jettySize=auto;html=1;exitX=0.5;exitY=1;exitDx=0;exitDy=0;entryX=0;entryY=0.5;entryDx=0;entryDy=0;" parent="1" source="0Ik1B2YSkoWto7h3oj6E-4" target="0Ik1B2YSkoWto7h3oj6E-22" edge="1">
          <mxGeometry relative="1" as="geometry" />
        </mxCell>
        <mxCell id="0Ik1B2YSkoWto7h3oj6E-4" value="航班动态" style="rounded=0;whiteSpace=wrap;html=1;" parent="1" vertex="1">
          <mxGeometry x="130" y="480" width="120" height="60" as="geometry" />
        </mxCell>
        <mxCell id="0Ik1B2YSkoWto7h3oj6E-24" style="edgeStyle=orthogonalEdgeStyle;rounded=0;orthogonalLoop=1;jettySize=auto;html=1;exitX=0.5;exitY=1;exitDx=0;exitDy=0;entryX=1;entryY=0.5;entryDx=0;entryDy=0;" parent="1" source="0Ik1B2YSkoWto7h3oj6E-5" target="0Ik1B2YSkoWto7h3oj6E-22" edge="1">
          <mxGeometry relative="1" as="geometry" />
        </mxCell>
        <mxCell id="0Ik1B2YSkoWto7h3oj6E-32" value="&lt;b&gt;&lt;font color=&quot;#ff3333&quot;&gt;人工审核流程&lt;br&gt;不会读取航班动态，因为没有时序性保证&lt;/font&gt;&lt;/b&gt;" style="edgeLabel;html=1;align=center;verticalAlign=middle;resizable=0;points=[];" parent="0Ik1B2YSkoWto7h3oj6E-24" vertex="1" connectable="0">
          <mxGeometry x="-0.6303" relative="1" as="geometry">
            <mxPoint as="offset" />
          </mxGeometry>
        </mxCell>
        <mxCell id="0Ik1B2YSkoWto7h3oj6E-5" value="航变中心" style="rounded=0;whiteSpace=wrap;html=1;" parent="1" vertex="1">
          <mxGeometry x="354" y="480" width="120" height="60" as="geometry" />
        </mxCell>
        <mxCell id="0Ik1B2YSkoWto7h3oj6E-13" value="" style="shape=flexArrow;endArrow=classic;html=1;rounded=0;exitX=0.433;exitY=1.05;exitDx=0;exitDy=0;exitPerimeter=0;entryX=0.5;entryY=0;entryDx=0;entryDy=0;" parent="1" source="0Ik1B2YSkoWto7h3oj6E-1" target="0Ik1B2YSkoWto7h3oj6E-4" edge="1">
          <mxGeometry width="50" height="50" relative="1" as="geometry">
            <mxPoint x="-180" y="430" as="sourcePoint" />
            <mxPoint x="-130" y="380" as="targetPoint" />
          </mxGeometry>
        </mxCell>
        <mxCell id="0Ik1B2YSkoWto7h3oj6E-14" value="" style="shape=flexArrow;endArrow=classic;html=1;rounded=0;exitX=0.5;exitY=1;exitDx=0;exitDy=0;entryX=0.675;entryY=0;entryDx=0;entryDy=0;entryPerimeter=0;" parent="1" source="0Ik1B2YSkoWto7h3oj6E-3" target="0Ik1B2YSkoWto7h3oj6E-4" edge="1">
          <mxGeometry width="50" height="50" relative="1" as="geometry">
            <mxPoint x="131.96000000000004" y="393" as="sourcePoint" />
            <mxPoint x="200" y="490" as="targetPoint" />
          </mxGeometry>
        </mxCell>
        <mxCell id="0Ik1B2YSkoWto7h3oj6E-15" value="" style="shape=flexArrow;endArrow=classic;html=1;rounded=0;exitX=0.625;exitY=1;exitDx=0;exitDy=0;exitPerimeter=0;entryX=0.5;entryY=0;entryDx=0;entryDy=0;" parent="1" source="0Ik1B2YSkoWto7h3oj6E-1" target="0Ik1B2YSkoWto7h3oj6E-5" edge="1">
          <mxGeometry width="50" height="50" relative="1" as="geometry">
            <mxPoint x="141.96000000000004" y="403" as="sourcePoint" />
            <mxPoint x="210" y="500" as="targetPoint" />
          </mxGeometry>
        </mxCell>
        <mxCell id="0Ik1B2YSkoWto7h3oj6E-16" value="" style="shape=flexArrow;endArrow=classic;html=1;rounded=0;exitX=0.5;exitY=1;exitDx=0;exitDy=0;entryX=0.667;entryY=0.017;entryDx=0;entryDy=0;entryPerimeter=0;" parent="1" target="0Ik1B2YSkoWto7h3oj6E-5" edge="1">
          <mxGeometry width="50" height="50" relative="1" as="geometry">
            <mxPoint x="300" y="380" as="sourcePoint" />
            <mxPoint x="221" y="480" as="targetPoint" />
          </mxGeometry>
        </mxCell>
        <mxCell id="0Ik1B2YSkoWto7h3oj6E-17" value="" style="shape=flexArrow;endArrow=classic;html=1;rounded=0;exitX=0.575;exitY=1.017;exitDx=0;exitDy=0;exitPerimeter=0;" parent="1" source="0Ik1B2YSkoWto7h3oj6E-2" edge="1">
          <mxGeometry width="50" height="50" relative="1" as="geometry">
            <mxPoint x="300" y="390" as="sourcePoint" />
            <mxPoint x="250" y="480" as="targetPoint" />
          </mxGeometry>
        </mxCell>
        <mxCell id="0Ik1B2YSkoWto7h3oj6E-18" value="" style="shape=flexArrow;endArrow=classic;html=1;rounded=0;exitX=0.575;exitY=1.017;exitDx=0;exitDy=0;exitPerimeter=0;entryX=0.75;entryY=0;entryDx=0;entryDy=0;" parent="1" target="0Ik1B2YSkoWto7h3oj6E-5" edge="1">
          <mxGeometry width="50" height="50" relative="1" as="geometry">
            <mxPoint x="499" y="380" as="sourcePoint" />
            <mxPoint x="290" y="478.98" as="targetPoint" />
          </mxGeometry>
        </mxCell>
        <mxCell id="0Ik1B2YSkoWto7h3oj6E-28" style="edgeStyle=orthogonalEdgeStyle;rounded=0;orthogonalLoop=1;jettySize=auto;html=1;" parent="1" source="0Ik1B2YSkoWto7h3oj6E-22" target="0Ik1B2YSkoWto7h3oj6E-27" edge="1">
          <mxGeometry relative="1" as="geometry">
            <Array as="points">
              <mxPoint x="410" y="640" />
              <mxPoint x="410" y="640" />
            </Array>
          </mxGeometry>
        </mxCell>
        <mxCell id="0Ik1B2YSkoWto7h3oj6E-31" value="提供航班时间" style="edgeLabel;html=1;align=center;verticalAlign=middle;resizable=0;points=[];" parent="0Ik1B2YSkoWto7h3oj6E-28" vertex="1" connectable="0">
          <mxGeometry x="-0.3333" y="1" relative="1" as="geometry">
            <mxPoint as="offset" />
          </mxGeometry>
        </mxCell>
        <mxCell id="0Ik1B2YSkoWto7h3oj6E-22" value="用车航班订单" style="rounded=0;whiteSpace=wrap;html=1;" parent="1" vertex="1">
          <mxGeometry x="250" y="585" width="120" height="60" as="geometry" />
        </mxCell>
        <mxCell id="0Ik1B2YSkoWto7h3oj6E-26" style="edgeStyle=orthogonalEdgeStyle;rounded=0;orthogonalLoop=1;jettySize=auto;html=1;entryX=0.5;entryY=1;entryDx=0;entryDy=0;" parent="1" source="0Ik1B2YSkoWto7h3oj6E-25" target="0Ik1B2YSkoWto7h3oj6E-22" edge="1">
          <mxGeometry relative="1" as="geometry" />
        </mxCell>
        <mxCell id="0Ik1B2YSkoWto7h3oj6E-25" value="如果状态是计划，取消，计划，认为是复飞" style="shape=cylinder3;whiteSpace=wrap;html=1;boundedLbl=1;backgroundOutline=1;size=15;" parent="1" vertex="1">
          <mxGeometry x="235" y="690" width="150" height="80" as="geometry" />
        </mxCell>
        <mxCell id="0Ik1B2YSkoWto7h3oj6E-27" value="平台派发" style="rounded=0;whiteSpace=wrap;html=1;" parent="1" vertex="1">
          <mxGeometry x="520" y="610" width="120" height="60" as="geometry" />
        </mxCell>
        <mxCell id="0Ik1B2YSkoWto7h3oj6E-30" style="edgeStyle=orthogonalEdgeStyle;rounded=0;orthogonalLoop=1;jettySize=auto;html=1;" parent="1" source="0Ik1B2YSkoWto7h3oj6E-29" target="0Ik1B2YSkoWto7h3oj6E-27" edge="1">
          <mxGeometry relative="1" as="geometry" />
        </mxCell>
        <mxCell id="0Ik1B2YSkoWto7h3oj6E-29" value="计算用车时间" style="shape=cylinder3;whiteSpace=wrap;html=1;boundedLbl=1;backgroundOutline=1;size=15;" parent="1" vertex="1">
          <mxGeometry x="505" y="710" width="150" height="70" as="geometry" />
        </mxCell>
      </root>
    </mxGraphModel>
  </diagram>
  <diagram id="lpzNl_8G_Yn_HKZu6CBQ" name="第 3 页">
    <mxGraphModel dx="1434" dy="764" grid="1" gridSize="10" guides="1" tooltips="1" connect="1" arrows="1" fold="1" page="1" pageScale="1" pageWidth="827" pageHeight="1169" math="0" shadow="0">
      <root>
        <mxCell id="0" />
        <mxCell id="1" parent="0" />
        <mxCell id="uRiVd9Ig-D7lXJhYmouO-3" style="edgeStyle=orthogonalEdgeStyle;rounded=0;orthogonalLoop=1;jettySize=auto;html=1;exitX=1;exitY=0.5;exitDx=0;exitDy=0;" parent="1" source="uRiVd9Ig-D7lXJhYmouO-1" target="uRiVd9Ig-D7lXJhYmouO-2" edge="1">
          <mxGeometry relative="1" as="geometry" />
        </mxCell>
        <mxCell id="uRiVd9Ig-D7lXJhYmouO-1" value="需求评审" style="rounded=1;whiteSpace=wrap;html=1;" parent="1" vertex="1">
          <mxGeometry x="110" y="330" width="120" height="60" as="geometry" />
        </mxCell>
        <mxCell id="uRiVd9Ig-D7lXJhYmouO-6" value="" style="edgeStyle=orthogonalEdgeStyle;rounded=0;orthogonalLoop=1;jettySize=auto;html=1;" parent="1" source="uRiVd9Ig-D7lXJhYmouO-2" target="uRiVd9Ig-D7lXJhYmouO-5" edge="1">
          <mxGeometry relative="1" as="geometry" />
        </mxCell>
        <mxCell id="uRiVd9Ig-D7lXJhYmouO-2" value="技术评审" style="rounded=1;whiteSpace=wrap;html=1;" parent="1" vertex="1">
          <mxGeometry x="320" y="330" width="120" height="60" as="geometry" />
        </mxCell>
        <mxCell id="uRiVd9Ig-D7lXJhYmouO-17" style="edgeStyle=orthogonalEdgeStyle;rounded=0;orthogonalLoop=1;jettySize=auto;html=1;entryX=0;entryY=0.5;entryDx=0;entryDy=0;" parent="1" source="uRiVd9Ig-D7lXJhYmouO-5" target="uRiVd9Ig-D7lXJhYmouO-14" edge="1">
          <mxGeometry relative="1" as="geometry" />
        </mxCell>
        <mxCell id="uRiVd9Ig-D7lXJhYmouO-19" style="edgeStyle=orthogonalEdgeStyle;rounded=0;orthogonalLoop=1;jettySize=auto;html=1;" parent="1" source="uRiVd9Ig-D7lXJhYmouO-5" target="uRiVd9Ig-D7lXJhYmouO-18" edge="1">
          <mxGeometry relative="1" as="geometry">
            <Array as="points">
              <mxPoint x="640" y="460" />
            </Array>
          </mxGeometry>
        </mxCell>
        <mxCell id="uRiVd9Ig-D7lXJhYmouO-21" value="评审不通过" style="edgeLabel;html=1;align=center;verticalAlign=middle;resizable=0;points=[];" parent="uRiVd9Ig-D7lXJhYmouO-19" vertex="1" connectable="0">
          <mxGeometry x="-0.6348" relative="1" as="geometry">
            <mxPoint as="offset" />
          </mxGeometry>
        </mxCell>
        <mxCell id="uRiVd9Ig-D7lXJhYmouO-5" value="API 评审&lt;br&gt;安全，SRE" style="whiteSpace=wrap;html=1;rounded=1;" parent="1" vertex="1">
          <mxGeometry x="520" y="330" width="120" height="60" as="geometry" />
        </mxCell>
        <mxCell id="uRiVd9Ig-D7lXJhYmouO-11" style="edgeStyle=orthogonalEdgeStyle;rounded=0;orthogonalLoop=1;jettySize=auto;html=1;entryX=0.5;entryY=0;entryDx=0;entryDy=0;shape=flexArrow;" parent="1" target="uRiVd9Ig-D7lXJhYmouO-2" edge="1">
          <mxGeometry relative="1" as="geometry">
            <mxPoint x="380" y="280" as="sourcePoint" />
          </mxGeometry>
        </mxCell>
        <mxCell id="uRiVd9Ig-D7lXJhYmouO-7" value="TO&amp;nbsp;" style="shape=umlActor;verticalLabelPosition=bottom;verticalAlign=top;html=1;outlineConnect=0;" parent="1" vertex="1">
          <mxGeometry x="365" y="180" width="30" height="60" as="geometry" />
        </mxCell>
        <mxCell id="uRiVd9Ig-D7lXJhYmouO-12" style="edgeStyle=orthogonalEdgeStyle;rounded=0;orthogonalLoop=1;jettySize=auto;html=1;entryX=0.5;entryY=0;entryDx=0;entryDy=0;shape=flexArrow;" parent="1" edge="1">
          <mxGeometry relative="1" as="geometry">
            <mxPoint x="580" y="330" as="targetPoint" />
            <mxPoint x="580" y="270" as="sourcePoint" />
          </mxGeometry>
        </mxCell>
        <mxCell id="uRiVd9Ig-D7lXJhYmouO-13" value="API评审团队" style="shape=umlActor;verticalLabelPosition=bottom;verticalAlign=top;html=1;outlineConnect=0;" parent="1" vertex="1">
          <mxGeometry x="565" y="180" width="30" height="60" as="geometry" />
        </mxCell>
        <mxCell id="uRiVd9Ig-D7lXJhYmouO-24" style="edgeStyle=orthogonalEdgeStyle;rounded=0;orthogonalLoop=1;jettySize=auto;html=1;" parent="1" source="uRiVd9Ig-D7lXJhYmouO-14" target="uRiVd9Ig-D7lXJhYmouO-23" edge="1">
          <mxGeometry relative="1" as="geometry" />
        </mxCell>
        <mxCell id="uRiVd9Ig-D7lXJhYmouO-14" value="API 文档录入" style="whiteSpace=wrap;html=1;rounded=1;" parent="1" vertex="1">
          <mxGeometry x="710" y="330" width="120" height="60" as="geometry" />
        </mxCell>
        <mxCell id="uRiVd9Ig-D7lXJhYmouO-15" value="" style="shape=umlActor;verticalLabelPosition=bottom;verticalAlign=top;html=1;outlineConnect=0;" parent="1" vertex="1">
          <mxGeometry x="620" y="180" width="30" height="60" as="geometry" />
        </mxCell>
        <mxCell id="uRiVd9Ig-D7lXJhYmouO-16" value="" style="shape=umlActor;verticalLabelPosition=bottom;verticalAlign=top;html=1;outlineConnect=0;" parent="1" vertex="1">
          <mxGeometry x="510" y="180" width="30" height="60" as="geometry" />
        </mxCell>
        <mxCell id="uRiVd9Ig-D7lXJhYmouO-20" style="edgeStyle=orthogonalEdgeStyle;rounded=0;orthogonalLoop=1;jettySize=auto;html=1;entryX=0;entryY=0.75;entryDx=0;entryDy=0;" parent="1" source="uRiVd9Ig-D7lXJhYmouO-18" target="uRiVd9Ig-D7lXJhYmouO-5" edge="1">
          <mxGeometry relative="1" as="geometry">
            <Array as="points">
              <mxPoint x="500" y="460" />
              <mxPoint x="500" y="375" />
            </Array>
          </mxGeometry>
        </mxCell>
        <mxCell id="uRiVd9Ig-D7lXJhYmouO-22" value="整改" style="edgeLabel;html=1;align=center;verticalAlign=middle;resizable=0;points=[];" parent="uRiVd9Ig-D7lXJhYmouO-20" vertex="1" connectable="0">
          <mxGeometry x="-0.4118" y="4" relative="1" as="geometry">
            <mxPoint as="offset" />
          </mxGeometry>
        </mxCell>
        <mxCell id="uRiVd9Ig-D7lXJhYmouO-18" value="" style="shape=umlActor;verticalLabelPosition=bottom;verticalAlign=top;html=1;outlineConnect=0;" parent="1" vertex="1">
          <mxGeometry x="565" y="430" width="30" height="60" as="geometry" />
        </mxCell>
        <mxCell id="uRiVd9Ig-D7lXJhYmouO-23" value="项目开发" style="whiteSpace=wrap;html=1;rounded=1;" parent="1" vertex="1">
          <mxGeometry x="710" y="450" width="120" height="60" as="geometry" />
        </mxCell>
      </root>
    </mxGraphModel>
  </diagram>
</mxfile>
